{
  "accessors": [
    {
      "bufferView": 2,
      "componentType": 5126,
      "count": 65534,
      "max": [
        392.4150085449219,
        93.72480010986328,
        207.0959930419922
      ],
      "min": [
        -152.03399658203125,
        51.20819854736328,
        -261.1029968261719
      ],
      "type": "VEC3"
    },
    {
      "bufferView": 2,
      "byteOffset": 786408,
      "componentType": 5126,
      "count": 65534,
      "max": [
        0.9987583160400391,
        0.9924491047859192,
        0.9996086955070496
      ],
      "min": [
        -0.9985582828521729,
        -0.9999997019767761,
        -0.9998601078987122
      ],
      "type": "VEC3"
    },
    {
      "bufferView": 1,
      "componentType": 5126,
      "count": 65534,
      "max": [
        0.9972180128097534,
        0.999396026134491
      ],
      "min": [
        0.15059900283813477,
        0.003530259942635894
      ],
      "type": "VEC2"
    },
    {
      "bufferView": 0,
      "componentType": 5125,
      "count": 309942,
      "type": "SCALAR"
    },
    {
      "bufferView": 2,
      "byteOffset": 1572816,
      "componentType": 5126,
      "count": 65533,
      "max": [
        384.0849914550781,
        93.58390045166016,
        250.45399475097656
      ],
      "min": [
        -218.031005859375,
        51.69240188598633,
        -260.5669860839844
      ],
      "type": "VEC3"
    },
    {
      "bufferView": 2,
      "byteOffset": 2359212,
      "componentType": 5126,
      "count": 65533,
      "max": [
        0.9992775917053223,
        0.9999827146530151,
        0.9998511075973511
      ],
      "min": [
        -0.999355673789978,
        -1.0,
        -0.9983034133911133
      ],
      "type": "VEC3"
    },
    {
      "bufferView": 1,
      "byteOffset": 524272,
      "componentType": 5126,
      "count": 65533,
      "max": [
        0.9985389709472656,
        0.9994649887084961
      ],
      "min": [
        0.0044666798785328865,
        0.0005293859867379069
      ],
      "type": "VEC2"
    },
    {
      "bufferView": 0,
      "byteOffset": 1239768,
      "componentType": 5125,
      "count": 294903,
      "type": "SCALAR"
    },
    {
      "bufferView": 2,
      "byteOffset": 3145608,
      "componentType": 5126,
      "count": 65532,
      "max": [
        373.95001220703125,
        93.76499938964844,
        373.8110046386719
      ],
      "min": [
        -352.125,
        52.698699951171875,
        -258.5639953613281
      ],
      "type": "VEC3"
    },
    {
      "bufferView": 2,
      "byteOffset": 3931992,
      "componentType": 5126,
      "count": 65532,
      "max": [
        0.9996529817581177,
        0.9999964237213135,
        0.9996078014373779
      ],
      "min": [
        -0.9997333884239197,
        -1.0,
        -0.9994586706161499
      ],
      "type": "VEC3"
    },
    {
      "bufferView": 1,
      "byteOffset": 1048536,
      "componentType": 5126,
      "count": 65532,
      "max": [
        0.9994649887084961,
        0.9994699954986572
      ],
      "min": [
        0.003557719988748431,
        0.0005293859867379069
      ],
      "type": "VEC2"
    },
    {
      "bufferView": 0,
      "byteOffset": 2419380,
      "componentType": 5125,
      "count": 271551,
      "type": "SCALAR"
    },
    {
      "bufferView": 2,
      "byteOffset": 4718376,
      "componentType": 5126,
      "count": 65534,
      "max": [
        391.239013671875,
        93.08820343017578,
        385.60699462890625
      ],
      "min": [
        -363.4259948730469,
        51.84560012817383,
        -246.73199462890625
      ],
      "type": "VEC3"
    },
    {
      "bufferView": 2,
      "byteOffset": 5504784,
      "componentType": 5126,
      "count": 65534,
      "max": [
        0.9996871948242188,
        0.9999958872795105,
        0.9998865723609924
      ],
      "min": [
        -0.999962329864502,
        -0.9999998211860657,
        -0.9999489188194275
      ],
      "type": "VEC3"
    },
    {
      "bufferView": 1,
      "byteOffset": 1572792,
      "componentType": 5126,
      "count": 65534,
      "max": [
        0.9994699954986572,
        0.9994699954986572
      ],
      "min": [
        0.0034354201052337885,
        0.0005293859867379069
      ],
      "type": "VEC2"
    },
    {
      "bufferView": 0,
      "byteOffset": 3505584,
      "componentType": 5125,
      "count": 272682,
      "type": "SCALAR"
    },
    {
      "bufferView": 2,
      "byteOffset": 6291192,
      "componentType": 5126,
      "count": 65532,
      "max": [
        370.37701416015625,
        93.74420166015625,
        385.60699462890625
      ],
      "min": [
        -360.0989990234375,
        55.56079864501953,
        -248.88699340820313
      ],
      "type": "VEC3"
    },
    {
      "bufferView": 2,
      "byteOffset": 7077576,
      "componentType": 5126,
      "count": 65532,
      "max": [
        0.999925971031189,
        0.9999447464942932,
        0.9998390674591064
      ],
      "min": [
        -0.999822735786438,
        -0.9999998807907104,
        -0.9999992251396179
      ],
      "type": "VEC3"
    },
    {
      "bufferView": 1,
      "byteOffset": 2097064,
      "componentType": 5126,
      "count": 65532,
      "max": [
        0.9994609951972961,
        0.9993950128555298
      ],
      "min": [
        0.0005293849972076714,
        0.0005293859867379069
      ],
      "type": "VEC2"
    },
    {
      "bufferView": 0,
      "byteOffset": 4596312,
      "componentType": 5125,
      "count": 280578,
      "type": "SCALAR"
    },
    {
      "bufferView": 2,
      "byteOffset": 7863960,
      "componentType": 5126,
      "count": 65534,
      "max": [
        364.74200439453125,
        93.83519744873047,
        366.3280029296875
      ],
      "min": [
        -401.0690002441406,
        56.34579849243164,
        -256.2330017089844
      ],
      "type": "VEC3"
    },
    {
      "bufferView": 2,
      "byteOffset": 8650368,
      "componentType": 5126,
      "count": 65534,
      "max": [
        0.9999046325683594,
        0.9998096227645874,
        0.999963104724884
      ],
      "min": [
        -0.9996984004974365,
        -0.9999996423721313,
        -0.999965250492096
      ],
      "type": "VEC3"
    },
    {
      "bufferView": 1,
      "byteOffset": 2621320,
      "componentType": 5126,
      "count": 65534,
      "max": [
        0.9994699954986572,
        0.9994699954986572
      ],
      "min": [
        0.06050899997353554,
        0.0005293859867379069
      ],
      "type": "VEC2"
    },
    {
      "bufferView": 0,
      "byteOffset": 5718624,
      "componentType": 5125,
      "count": 263481,
      "type": "SCALAR"
    },
    {
      "bufferView": 2,
      "byteOffset": 9436776,
      "componentType": 5126,
      "count": 65532,
      "max": [
        372.4949951171875,
        93.32689666748047,
        343.79901123046875
      ],
      "min": [
        -445.010009765625,
        63.37200164794922,
        -269.3420104980469
      ],
      "type": "VEC3"
    },
    {
      "bufferView": 2,
      "byteOffset": 10223160,
      "componentType": 5126,
      "count": 65532,
      "max": [
        0.9999089241027832,
        0.9998526573181152,
        0.9999663829803467
      ],
      "min": [
        -0.9999736547470093,
        -0.9999997615814209,
        -0.9999749064445496
      ],
      "type": "VEC3"
    },
    {
      "bufferView": 1,
      "byteOffset": 3145592,
      "componentType": 5126,
      "count": 65532,
      "max": [
        0.9994570016860962,
        0.9994670152664185
      ],
      "min": [
        0.0005293849972076714,
        0.001067460048943758
      ],
      "type": "VEC2"
    },
    {
      "bufferView": 0,
      "byteOffset": 6772548,
      "componentType": 5125,
      "count": 282117,
      "type": "SCALAR"
    },
    {
      "bufferView": 2,
      "byteOffset": 11009544,
      "componentType": 5126,
      "count": 65532,
      "max": [
        370.1719970703125,
        93.68930053710938,
        342.6889953613281
      ],
      "min": [
        -465.59698486328125,
        57.62300109863281,
        -286.739013671875
      ],
      "type": "VEC3"
    },
    {
      "bufferView": 2,
      "byteOffset": 11795928,
      "componentType": 5126,
      "count": 65532,
      "max": [
        0.9997716546058655,
        0.9990324974060059,
        0.9999350309371948
      ],
      "min": [
        -0.9999696612358093,
        -0.999999463558197,
        -0.9999749064445496
      ],
      "type": "VEC3"
    },
    {
      "bufferView": 1,
      "byteOffset": 3669848,
      "componentType": 5126,
      "count": 65532,
      "max": [
        0.9994699954986572,
        0.9994630217552185
      ],
      "min": [
        0.0005293859867379069,
        0.00921535026282072
      ],
      "type": "VEC2"
    },
    {
      "bufferView": 0,
      "byteOffset": 7901016,
      "componentType": 5125,
      "count": 246786,
      "type": "SCALAR"
    },
    {
      "bufferView": 2,
      "byteOffset": 12582312,
      "componentType": 5126,
      "count": 65532,
      "max": [
        367.3299865722656,
        93.83519744873047,
        342.82000732421875
      ],
      "min": [
        -481.44500732421875,
        59.332000732421875,
        -282.09698486328125
      ],
      "type": "VEC3"
    },
    {
      "bufferView": 2,
      "byteOffset": 13368696,
      "componentType": 5126,
      "count": 65532,
      "max": [
        0.9999761581420898,
        0.9998475909233093,
        0.9998623132705688
      ],
      "min": [
        -0.9998598098754883,
        -0.9999995231628418,
        -0.9999991655349731
      ],
      "type": "VEC3"
    },
    {
      "bufferView": 1,
      "byteOffset": 4194104,
      "componentType": 5126,
      "count": 65532,
      "max": [
        0.9994699954986572,
        0.9994699954986572
      ],
      "min": [
        0.0005293859867379069,
        0.0005293859867379069
      ],
      "type": "VEC2"
    },
    {
      "bufferView": 0,
      "byteOffset": 8888160,
      "componentType": 5125,
      "count": 222897,
      "type": "SCALAR"
    },
    {
      "bufferView": 2,
      "byteOffset": 14155080,
      "componentType": 5126,
      "count": 65532,
      "max": [
        338.3039855957031,
        93.8041000366211,
        335.6940002441406
      ],
      "min": [
        -481.44500732421875,
        51.20819854736328,
        -289.21099853515625
      ],
      "type": "VEC3"
    },
    {
      "bufferView": 2,
      "byteOffset": 14941464,
      "componentType": 5126,
      "count": 65532,
      "max": [
        0.9999586343765259,
        0.9999825954437256,
        0.9999499320983887
      ],
      "min": [
        -0.9999974370002747,
        -0.9999992847442627,
        -0.9997604489326477
      ],
      "type": "VEC3"
    },
    {
      "bufferView": 1,
      "byteOffset": 4718360,
      "componentType": 5126,
      "count": 65532,
      "max": [
        0.9994710087776184,
        0.9994649887084961
      ],
      "min": [
        0.0005293849972076714,
        0.044970400631427765
      ],
      "type": "VEC2"
    },
    {
      "bufferView": 0,
      "byteOffset": 9779748,
      "componentType": 5125,
      "count": 195780,
      "type": "SCALAR"
    },
    {
      "bufferView": 2,
      "byteOffset": 15727848,
      "componentType": 5126,
      "count": 65532,
      "max": [
        372.61700439453125,
        93.27359771728516,
        355.59100341796875
      ],
      "min": [
        -431.38800048828125,
        56.86940002441406,
        -284.7439880371094
      ],
      "type": "VEC3"
    },
    {
      "bufferView": 2,
      "byteOffset": 16514232,
      "componentType": 5126,
      "count": 65532,
      "max": [
        0.9998471736907959,
        0.9995794892311096,
        0.99994295835495
      ],
      "min": [
        -0.9999867081642151,
        -0.9999998211860657,
        -0.999955415725708
      ],
      "type": "VEC3"
    },
    {
      "bufferView": 1,
      "byteOffset": 5242616,
      "componentType": 5126,
      "count": 65532,
      "max": [
        0.999468982219696,
        0.9994699954986572
      ],
      "min": [
        0.0005293859867379069,
        0.0008355610189028084
      ],
      "type": "VEC2"
    },
    {
      "bufferView": 0,
      "byteOffset": 10562868,
      "componentType": 5125,
      "count": 242370,
      "type": "SCALAR"
    },
    {
      "bufferView": 2,
      "byteOffset": 17300616,
      "componentType": 5126,
      "count": 38872,
      "max": [
        379.6830139160156,
        93.24420166015625,
        350.4049987792969
      ],
      "min": [
        -374.625,
        56.945098876953125,
        -256.2330017089844
      ],
      "type": "VEC3"
    },
    {
      "bufferView": 2,
      "byteOffset": 17767080,
      "componentType": 5126,
      "count": 38872,
      "max": [
        0.9994139671325684,
        0.9999967813491821,
        0.9999663829803467
      ],
      "min": [
        -0.9998760223388672,
        -0.9999999403953552,
        -0.9991304874420166
      ],
      "type": "VEC3"
    },
    {
      "bufferView": 1,
      "byteOffset": 5766872,
      "componentType": 5126,
      "count": 38872,
      "max": [
        0.999468982219696,
        0.9994519948959351
      ],
      "min": [
        0.0011680800234898925,
        0.0005293859867379069
      ],
      "type": "VEC2"
    },
    {
      "bufferView": 0,
      "byteOffset": 11532348,
      "componentType": 5125,
      "count": 116913,
      "type": "SCALAR"
    }
  ],
  "asset": {
    "extras": {
      "author": "myparadisepilot (https://sketchfab.com/myparadisepilot)",
      "license": "CC-BY-NC-ND-4.0 (http://creativecommons.org/licenses/by-nc-nd/4.0/)",
      "source": "https://sketchfab.com/3d-models/a-farm-during-summer-3b8710936a9e45afabc0ef0ba3a335a3",
      "title": "a Farm during Summer"
    },
    "generator": "Sketchfab-12.68.0",
    "version": "2.0"
  },
  "bufferViews": [
    {
      "buffer": 0,
      "byteLength": 12000000,
      "name": "floatBufferViews",
      "target": 34963
    },
    {
      "buffer": 0,
      "byteLength": 6077848,
      "byteOffset": 12000000,
      "byteStride": 8,
      "name": "floatBufferViews",
      "target": 34962
    },
    {
      "buffer": 0,
      "byteLength": 18233544,
      "byteOffset": 18077848,
      "byteStride": 12,
      "name": "floatBufferViews",
      "target": 34962
    }
  ],
  "buffers": [
    {
      "byteLength": 36311392,
      "uri": "scene.bin"
    }
  ],
  "extensionsUsed": [
    "KHR_materials_unlit"
  ],
  "images": [
    {
      "uri": "textures/texture_baseColor.jpeg"
    }
  ],
  "materials": [
    {
      "doubleSided": true,
      "extensions": {
        "KHR_materials_unlit": {}
      },
      "name": "texture",
      "pbrMetallicRoughness": {
        "baseColorTexture": {
          "index": 0
        },
        "metallicFactor": 0.0
      }
    }
  ],
  "meshes": [
    {
      "name": "Object_0",
      "primitives": [
        {
          "attributes": {
            "NORMAL": 1,
            "POSITION": 0,
            "TEXCOORD_0": 2
          },
          "indices": 3,
          "material": 0,
          "mode": 4
        }
      ]
    },
    {
      "name": "Object_1",
      "primitives": [
        {
          "attributes": {
            "NORMAL": 5,
            "POSITION": 4,
            "TEXCOORD_0": 6
          },
          "indices": 7,
          "material": 0,
          "mode": 4
        }
      ]
    },
    {
      "name": "Object_2",
      "primitives": [
        {
          "attributes": {
            "NORMAL": 9,
            "POSITION": 8,
            "TEXCOORD_0": 10
          },
          "indices": 11,
          "material": 0,
          "mode": 4
        }
      ]
    },
    {
      "name": "Object_3",
      "primitives": [
        {
          "attributes": {
            "NORMAL": 13,
            "POSITION": 12,
            "TEXCOORD_0": 14
          },
          "indices": 15,
          "material": 0,
          "mode": 4
        }
      ]
    },
    {
      "name": "Object_4",
      "primitives": [
        {
          "attributes": {
            "NORMAL": 17,
            "POSITION": 16,
            "TEXCOORD_0": 18
          },
          "indices": 19,
          "material": 0,
          "mode": 4
        }
      ]
    },
    {
      "name": "Object_5",
      "primitives": [
        {
          "attributes": {
            "NORMAL": 21,
            "POSITION": 20,
            "TEXCOORD_0": 22
          },
          "indices": 23,
          "material": 0,
          "mode": 4
        }
      ]
    },
    {
      "name": "Object_6",
      "primitives": [
        {
          "attributes": {
            "NORMAL": 25,
            "POSITION": 24,
            "TEXCOORD_0": 26
          },
          "indices": 27,
          "material": 0,
          "mode": 4
        }
      ]
    },
    {
      "name": "Object_7",
      "primitives": [
        {
          "attributes": {
            "NORMAL": 29,
            "POSITION": 28,
            "TEXCOORD_0": 30
          },
          "indices": 31,
          "material": 0,
          "mode": 4
        }
      ]
    },
    {
      "name": "Object_8",
      "primitives": [
        {
          "attributes": {
            "NORMAL": 33,
            "POSITION": 32,
            "TEXCOORD_0": 34
          },
          "indices": 35,
          "material": 0,
          "mode": 4
        }
      ]
    },
    {
      "name": "Object_9",
      "primitives": [
        {
          "attributes": {
            "NORMAL": 37,
            "POSITION": 36,
            "TEXCOORD_0": 38
          },
          "indices": 39,
          "material": 0,
          "mode": 4
        }
      ]
    },
    {
      "name": "Object_10",
      "primitives": [
        {
          "attributes": {
            "NORMAL": 41,
            "POSITION": 40,
            "TEXCOORD_0": 42
          },
          "indices": 43,
          "material": 0,
          "mode": 4
        }
      ]
    },
    {
      "name": "Object_11",
      "primitives": [
        {
          "attributes": {
            "NORMAL": 45,
            "POSITION": 44,
            "TEXCOORD_0": 46
          },
          "indices": 47,
          "material": 0,
          "mode": 4
        }
      ]
    }
  ],
  "nodes": [
    {
      "children": [
        1
      ],
      "matrix": [
        0.9859851598739624,
        -3.7044383760680887e-17,
        0.1668330729007721,
        0.0,
        0.0,
        -1.0,
        -2.220446049250313e-16,
        0.0,
        0.1668330729007721,
        2.1893268528615781e-16,
        -0.9859851598739624,
        0.0,
        -8.665077209472656,
        120.72084045410156,
        -17.57153320312497,
        1.0
      ],
      "name": "Sketchfab_model"
    },
    {
      "children": [
        2,
        3,
        4,
        5,
        6,
        7,
        8,
        9,
        10,
        11,
        12,
        13
      ],
      "name": "Big Farm 3D Model_simplified_3d_mesh.obj.cleaner.materialmerger.gles"
    },
    {
      "mesh": 0,
      "name": "Object_2"
    },
    {
      "mesh": 1,
      "name": "Object_3"
    },
    {
      "mesh": 2,
      "name": "Object_4"
    },
    {
      "mesh": 3,
      "name": "Object_5"
    },
    {
      "mesh": 4,
      "name": "Object_6"
    },
    {
      "mesh": 5,
      "name": "Object_7"
    },
    {
      "mesh": 6,
      "name": "Object_8"
    },
    {
      "mesh": 7,
      "name": "Object_9"
    },
    {
      "mesh": 8,
      "name": "Object_10"
    },
    {
      "mesh": 9,
      "name": "Object_11"
    },
    {
      "mesh": 10,
      "name": "Object_12"
    },
    {
      "mesh": 11,
      "name": "Object_13"
    }
  ],
  "samplers": [
    {
      "magFilter": 9729,
      "minFilter": 9987,
      "wrapS": 10497,
      "wrapT": 10497
    }
  ],
  "scene": 0,
  "scenes": [
    {
      "name": "Sketchfab_Scene",
      "nodes": [
        0
      ]
    }
  ],
  "textures": [
    {
      "sampler": 0,
      "source": 0
    }
  ]
}
